<?xml version="1.0" encoding="UTF-8"?>
<!DOCTYPE svg PUBLIC "-//W3C//DTD SVG 1.1//EN" "http://www.w3.org/Graphics/SVG/1.1/DTD/svg11.dtd">
<svg xmlns="http://www.w3.org/2000/svg" version="1.1" width="512px" height="512px" style="shape-rendering:geometricPrecision; text-rendering:geometricPrecision; image-rendering:optimizeQuality; fill-rule:evenodd; clip-rule:evenodd" xmlns:xlink="http://www.w3.org/1999/xlink">
<g><path style="opacity:0.992" fill="#000000" d="M 18.5,-0.5 C 122.5,-0.5 226.5,-0.5 330.5,-0.5C 339.781,2.61613 345.948,8.94947 349,18.5C 349.5,66.1655 349.667,113.832 349.5,161.5C 359.839,161.334 370.172,161.5 380.5,162C 386.767,163.934 390.601,168.1 392,174.5C 392.333,193.5 392.667,212.5 393,231.5C 403.667,222.833 414.333,214.167 425,205.5C 426.181,184.263 436.681,170.097 456.5,163C 484.458,157.967 502.792,168.8 511.5,195.5C 511.5,201.5 511.5,207.5 511.5,213.5C 502.759,239.059 484.759,250.226 457.5,247C 436,264.5 414.5,282 393,299.5C 392.667,323.167 392.333,346.833 392,370.5C 390.573,376.925 386.74,381.092 380.5,383C 370.172,383.5 359.839,383.666 349.5,383.5C 349.667,419.835 349.5,456.168 349,492.5C 345.948,502.051 339.781,508.384 330.5,511.5C 226.5,511.5 122.5,511.5 18.5,511.5C 9.16667,508.167 2.83333,501.833 -0.5,492.5C -0.5,334.5 -0.5,176.5 -0.5,18.5C 2.83333,9.16667 9.16667,2.83333 18.5,-0.5 Z"/></g>
<g><path style="opacity:1" fill="#ced7db" d="M 313.5,16.5 C 313.892,18.1789 314.392,19.8455 315,21.5C 315.667,177.5 315.667,333.5 315,489.5C 313.991,491.025 313.491,492.692 313.5,494.5C 216.166,494.667 118.833,494.5 21.5,494C 19.6217,492.457 18.1217,490.624 17,488.5C 16.3333,332.833 16.3333,177.167 17,21.5C 18.5,20 20,18.5 21.5,17C 118.833,16.5 216.166,16.3333 313.5,16.5 Z"/></g>
<g><path style="opacity:1" fill="#5e7b89" d="M 313.5,16.5 C 317.846,16.3343 322.179,16.501 326.5,17C 329,18.1667 330.833,20 332,22.5C 332.667,177.833 332.667,333.167 332,488.5C 330.833,491 329,492.833 326.5,494C 322.179,494.499 317.846,494.666 313.5,494.5C 313.491,492.692 313.991,491.025 315,489.5C 315.667,333.5 315.667,177.5 315,21.5C 314.392,19.8455 313.892,18.1789 313.5,16.5 Z"/></g>
<g><path style="opacity:1" fill="#030302" d="M 208.5,202.5 C 207.957,202.56 207.624,202.893 207.5,203.5C 229.49,204.5 251.49,204.833 273.5,204.5C 280.58,206.879 282.413,211.545 279,218.5C 214.333,294.5 149.667,370.5 85,446.5C 79.8936,452.618 74.5603,452.951 69,447.5C 68.3988,445.863 67.8988,444.197 67.5,442.5C 86.3743,385.877 105.041,329.211 123.5,272.5C 109.496,272.667 95.496,272.5 81.5,272C 78.1125,269.724 76.4458,266.558 76.5,262.5C 87.1401,205.133 97.9734,147.799 109,90.5C 109.663,86.006 111.163,81.8394 113.5,78C 155.749,76.3447 198.083,76.0113 240.5,77C 245.906,78.9803 247.739,82.8136 246,88.5C 233.192,126.425 220.692,164.425 208.5,202.5 Z"/></g>
<g><path style="opacity:1" fill="#feea39" d="M 210.5,93.5 C 199.308,128.575 187.808,163.575 176,198.5C 173.881,208.204 177.714,213.537 187.5,214.5C 188.614,217.449 190.614,219.615 193.5,221C 208.496,221.5 223.496,221.667 238.5,221.5C 238.649,222.552 238.483,223.552 238,224.5C 195.375,275.46 152.375,326.127 109,376.5C 108.536,375.906 108.369,375.239 108.5,374.5C 120.298,337.773 132.298,301.106 144.5,264.5C 144.264,260.429 142.264,257.596 138.5,256C 124.171,255.5 109.837,255.333 95.5,255.5C 105.111,201.445 115.111,147.445 125.5,93.5C 153.833,93.5 182.167,93.5 210.5,93.5 Z"/></g>
<g><path style="opacity:1" fill="#fcd733" d="M 210.5,93.5 C 215.844,93.334 221.177,93.5006 226.5,94C 212.386,133.842 199.386,174.008 187.5,214.5C 177.714,213.537 173.881,208.204 176,198.5C 187.808,163.575 199.308,128.575 210.5,93.5 Z"/></g>
<g><path style="opacity:1" fill="#5f7c8a" d="M 349.5,178.5 C 357.833,178.5 366.167,178.5 374.5,178.5C 374.5,241.167 374.5,303.833 374.5,366.5C 366.167,366.5 357.833,366.5 349.5,366.5C 349.5,303.833 349.5,241.167 349.5,178.5 Z"/></g>
<g><path style="opacity:1" fill="#fbe739" d="M 463.5,178.5 C 478.886,177.273 489.052,183.939 494,198.5C 494.324,222.773 482.491,232.606 458.5,228C 443.766,218.908 439.933,206.408 447,190.5C 451.256,184.737 456.756,180.737 463.5,178.5 Z"/></g>
<g><path style="opacity:1" fill="#a6adb1" d="M 208.5,202.5 C 230.167,203.167 251.833,203.833 273.5,204.5C 251.49,204.833 229.49,204.5 207.5,203.5C 207.624,202.893 207.957,202.56 208.5,202.5 Z"/></g>
<g><path style="opacity:1" fill="#f8d433" d="M 238.5,221.5 C 243.511,221.334 248.511,221.501 253.5,222C 202.119,282.593 150.619,343.093 99,403.5C 101.466,393.601 104.633,383.934 108.5,374.5C 108.369,375.239 108.536,375.906 109,376.5C 152.375,326.127 195.375,275.46 238,224.5C 238.483,223.552 238.649,222.552 238.5,221.5 Z"/></g>
<g><path style="opacity:1" fill="#5e7b88" d="M 429.5,224.5 C 431.017,224.511 432.184,225.177 433,226.5C 435.075,230.579 437.908,234.079 441.5,237C 425.609,250.526 409.442,263.692 393,276.5C 392.333,269.167 392.333,261.833 393,254.5C 405.329,244.601 417.496,234.601 429.5,224.5 Z"/></g>
</svg>
