<?xml version="1.0" encoding="UTF-8"?>
<!DOCTYPE svg PUBLIC "-//W3C//DTD SVG 1.1//EN" "http://www.w3.org/Graphics/SVG/1.1/DTD/svg11.dtd">
<svg xmlns="http://www.w3.org/2000/svg" version="1.1" width="193px" height="280px" style="shape-rendering:geometricPrecision; text-rendering:geometricPrecision; image-rendering:optimizeQuality; fill-rule:evenodd; clip-rule:evenodd" xmlns:xlink="http://www.w3.org/1999/xlink">
<g><path style="opacity:0.965" fill="#000000" d="M 96.5,1.5 C 142.114,-1.80284 170.614,18.5305 182,62.5C 191.48,107.437 190.48,152.104 179,196.5C 170.343,224.159 152.176,241.992 124.5,250C 138.5,250.333 152.5,250.667 166.5,251C 168.487,252.319 169.654,254.152 170,256.5C 170.851,262.253 170.517,267.92 169,273.5C 167.681,275.487 165.848,276.654 163.5,277C 121.167,277.667 78.8333,277.667 36.5,277C 32.6051,276.067 30.4384,273.567 30,269.5C 28.6643,262.826 29.831,256.659 33.5,251C 48.5,250.667 63.5,250.333 78.5,250C 53.561,243.063 37.061,227.229 29,202.5C 23.4881,184.252 20.4881,165.586 20,146.5C 18.7608,124.364 19.9275,102.364 23.5,80.5C 23.1667,79.8333 22.8333,79.1667 22.5,78.5C 17.6807,82.0903 12.3473,83.5903 6.5,83C 5.66667,82.1667 4.83333,81.3333 4,80.5C 1.74389,70.7104 2.07723,61.0438 5,51.5C 6.5,50 8,48.5 9.5,47C 27.7693,35.7272 45.7693,24.0605 63.5,12C 74.0121,6.54967 85.0121,3.04967 96.5,1.5 Z M 120.5,31.5 C 133.321,36.7466 141.821,46.08 146,59.5C 152.083,82.0773 154.916,105.077 154.5,128.5C 154.958,149.546 152.458,170.213 147,190.5C 143.596,203.166 136.43,212.999 125.5,220C 123.975,221.009 122.308,221.509 120.5,221.5C 120.5,158.167 120.5,94.8333 120.5,31.5 Z M 85.5,32.5 C 86.6653,95.6653 86.832,158.999 86,222.5C 74.12,216.953 66.12,207.953 62,195.5C 55.6619,173.126 52.8285,150.293 53.5,127C 52.5836,103.239 55.7503,80.0724 63,57.5C 67.7767,46.5391 75.2767,38.2058 85.5,32.5 Z"/></g>
</svg>
